# xmcd
#
# Track frame offsets: 
#        150
#        49142
#        67032
#        84082
#        88840
#        102960
#        123260
#        138770
#        155077
#        169855
#        185520
#        194105
#        209155
#        221960
#        245257
#        263030
#        277065
#
# Disc length: 3930 seconds
#
# Revision: 0
# Processed by: cddbd v1.5.2PL0 Copyright (c) Steve Scherf et al.
# Submitted via: ExactAudioCopy v0.99pb5
#
DISCID=0a0f5811
DTITLE=Maria Venuti / Maria Venuti Sings Schubert, Schoenberg, Schuman
DTITLE=n
DYEAR=1994
DGENRE=Classical
TTITLE0=Der Hirt Auf Dem Flesen Op. 129 (Studio)
TTITLE1=4 Lieder Nach Texten V. Richard Dehmel Op. 2: Erwartung
TTITLE2=4 Lieder Nach Texten V. Richard Dehmel Op. 2: Schenk Mir Deine
TTITLE2=n Goldenen Kamm
TTITLE3=4 Lieder Nach Texten V. Richard Dehmel Op. 2: Erhebung
TTITLE4=4 Lieder Nach Texten V. Richard Dehmel Op. 2: Waldsonne
TTITLE5=4 Lieder Der Mignon Nach Goethe: Kennst Du Das Land Op. 62, No
TTITLE5=. 1
TTITLE6=4 Lieder Der Mignon Nach Goethe: Nur Wer Die Sehnsucht Kennt O
TTITLE6=p. 62, No. 4
TTITLE7=4 Lieder Der Mignon Nach Goethe: Heiss Mich Nicht Reden Op. 62
TTITLE7=, No. 2
TTITLE8=4 Lieder Der Mignon Nach Goethe: So Lasst Mich Scheinen Op. 62
TTITLE8=, No. 3
TTITLE9=4 Lieder Der Mignon Nach Goethe: Kennst Du Das Land
TTITLE10=4 Lieder Der Mignon Nach Goethe: Nur Wer Die Sehnsucht Kennt
TTITLE11=4 Lieder Der Mignon Nach Goethe: Heiss Mich Nicht Reden
TTITLE12=4 Lieder Der Mignon Nach Goethe: So Lasst Mich Scheinen
TTITLE13=Franz Schubert: Suleika Op. 14
TTITLE14=Franz Schubert: Suleikas Zweiter Gesang Op. 31
TTITLE15=Franz Schubert: Florio Op. 124, No. 2
TTITLE16=Franz Schubert: Delphine Op. 124, No. 1
EXTD=
EXTT0=
EXTT1=
EXTT2=
EXTT3=
EXTT4=
EXTT5=
EXTT6=
EXTT7=
EXTT8=
EXTT9=
EXTT10=
EXTT11=
EXTT12=
EXTT13=
EXTT14=
EXTT15=
EXTT16=
PLAYORDER=
